<mxfile host="app.diagrams.net" modified="2023-04-10T02:52:38.897Z" agent="Mozilla/5.0 (Windows NT 10.0; Win64; x64) AppleWebKit/537.36 (KHTML, like Gecko) Chrome/114.0.0.0 Safari/537.36" etag="v30LSojT6fAcanC5jxEy" version="21.1.4" type="github">
  <diagram name="第 1 页" id="phENBI9sz1u5HpmOegjp">
    <mxGraphModel dx="1050" dy="575" grid="0" gridSize="10" guides="1" tooltips="1" connect="1" arrows="1" fold="1" page="1" pageScale="1" pageWidth="827" pageHeight="1169" math="0" shadow="0">
      <root>
        <mxCell id="0" />
        <mxCell id="1" parent="0" />
        <mxCell id="2GED-oKlP-oh9KLrhQt5-30" value="" style="verticalLabelPosition=bottom;verticalAlign=top;html=1;shape=mxgraph.basic.rect;fillColor2=none;strokeWidth=2;size=20;indent=5;fillStyle=auto;fillColor=none;strokeColor=#FFB570;dashed=1;" vertex="1" parent="1">
          <mxGeometry x="9" y="113" width="345" height="186" as="geometry" />
        </mxCell>
        <mxCell id="2GED-oKlP-oh9KLrhQt5-2" value="定义设计域，设置约束及载荷" style="rounded=1;whiteSpace=wrap;html=1;fontSize=12;glass=0;strokeWidth=1;shadow=0;fillColor=#fff2cc;strokeColor=#d6b656;gradientColor=#ffd966;" vertex="1" parent="1">
          <mxGeometry x="681" y="30" width="120" height="40" as="geometry" />
        </mxCell>
        <mxCell id="2GED-oKlP-oh9KLrhQt5-28" value="" style="edgeStyle=orthogonalEdgeStyle;rounded=0;orthogonalLoop=1;jettySize=auto;html=1;" edge="1" parent="1" source="2GED-oKlP-oh9KLrhQt5-18" target="2GED-oKlP-oh9KLrhQt5-22">
          <mxGeometry relative="1" as="geometry" />
        </mxCell>
        <mxCell id="2GED-oKlP-oh9KLrhQt5-18" value="Python解释器" style="rounded=0;whiteSpace=wrap;html=1;gradientColor=#FFD966;fillColor=#FFF2CC;strokeColor=#D6B656;" vertex="1" parent="1">
          <mxGeometry x="129" y="186" width="88" height="32" as="geometry" />
        </mxCell>
        <mxCell id="2GED-oKlP-oh9KLrhQt5-25" value="" style="edgeStyle=orthogonalEdgeStyle;rounded=0;orthogonalLoop=1;jettySize=auto;html=1;" edge="1" parent="1" source="2GED-oKlP-oh9KLrhQt5-19" target="2GED-oKlP-oh9KLrhQt5-18">
          <mxGeometry relative="1" as="geometry" />
        </mxCell>
        <mxCell id="2GED-oKlP-oh9KLrhQt5-19" value=".npy文件" style="rounded=0;whiteSpace=wrap;html=1;gradientColor=#FFD966;fillColor=#FFF2CC;strokeColor=#D6B656;" vertex="1" parent="1">
          <mxGeometry x="131.5" y="120" width="83" height="29" as="geometry" />
        </mxCell>
        <mxCell id="2GED-oKlP-oh9KLrhQt5-26" value="" style="edgeStyle=orthogonalEdgeStyle;rounded=0;orthogonalLoop=1;jettySize=auto;html=1;" edge="1" parent="1" source="2GED-oKlP-oh9KLrhQt5-20" target="2GED-oKlP-oh9KLrhQt5-18">
          <mxGeometry relative="1" as="geometry" />
        </mxCell>
        <mxCell id="2GED-oKlP-oh9KLrhQt5-20" value="Python脚本" style="rounded=0;whiteSpace=wrap;html=1;gradientColor=#FFD966;fillColor=#FFF2CC;strokeColor=#D6B656;" vertex="1" parent="1">
          <mxGeometry x="247" y="185.5" width="97" height="33" as="geometry" />
        </mxCell>
        <mxCell id="2GED-oKlP-oh9KLrhQt5-27" value="" style="edgeStyle=orthogonalEdgeStyle;rounded=0;orthogonalLoop=1;jettySize=auto;html=1;" edge="1" parent="1" source="2GED-oKlP-oh9KLrhQt5-21" target="2GED-oKlP-oh9KLrhQt5-18">
          <mxGeometry relative="1" as="geometry" />
        </mxCell>
        <mxCell id="2GED-oKlP-oh9KLrhQt5-21" value="ABAQUS/CAE" style="rounded=0;whiteSpace=wrap;html=1;gradientColor=#FFD966;fillColor=#FFF2CC;strokeColor=#D6B656;" vertex="1" parent="1">
          <mxGeometry x="18" y="186" width="83" height="32.5" as="geometry" />
        </mxCell>
        <mxCell id="2GED-oKlP-oh9KLrhQt5-32" value="" style="edgeStyle=orthogonalEdgeStyle;rounded=0;orthogonalLoop=1;jettySize=auto;html=1;" edge="1" parent="1" source="2GED-oKlP-oh9KLrhQt5-22" target="2GED-oKlP-oh9KLrhQt5-31">
          <mxGeometry relative="1" as="geometry" />
        </mxCell>
        <mxCell id="2GED-oKlP-oh9KLrhQt5-22" value="ABAQUS/CAE&lt;br&gt;Kernel" style="rounded=0;whiteSpace=wrap;html=1;gradientColor=#FFD966;fillColor=#FFF2CC;strokeColor=#D6B656;" vertex="1" parent="1">
          <mxGeometry x="120.5" y="246" width="105" height="38" as="geometry" />
        </mxCell>
        <mxCell id="2GED-oKlP-oh9KLrhQt5-37" value="" style="edgeStyle=orthogonalEdgeStyle;rounded=0;orthogonalLoop=1;jettySize=auto;html=1;" edge="1" parent="1" source="2GED-oKlP-oh9KLrhQt5-31" target="2GED-oKlP-oh9KLrhQt5-35">
          <mxGeometry relative="1" as="geometry" />
        </mxCell>
        <mxCell id="2GED-oKlP-oh9KLrhQt5-31" value="INP文件" style="rounded=0;whiteSpace=wrap;html=1;gradientColor=#FFD966;fillColor=#FFF2CC;strokeColor=#D6B656;" vertex="1" parent="1">
          <mxGeometry x="120.5" y="331" width="105" height="38" as="geometry" />
        </mxCell>
        <mxCell id="2GED-oKlP-oh9KLrhQt5-34" value="" style="edgeStyle=orthogonalEdgeStyle;rounded=0;orthogonalLoop=1;jettySize=auto;html=1;" edge="1" parent="1" source="2GED-oKlP-oh9KLrhQt5-33" target="2GED-oKlP-oh9KLrhQt5-31">
          <mxGeometry relative="1" as="geometry" />
        </mxCell>
        <mxCell id="2GED-oKlP-oh9KLrhQt5-33" value="Python脚本" style="rounded=0;whiteSpace=wrap;html=1;gradientColor=#FFD966;fillColor=#FFF2CC;strokeColor=#D6B656;" vertex="1" parent="1">
          <mxGeometry x="18" y="331" width="81" height="38" as="geometry" />
        </mxCell>
        <mxCell id="2GED-oKlP-oh9KLrhQt5-35" value="Abaqus/Standard&lt;br&gt;Abaqus/Exlicit" style="rounded=0;whiteSpace=wrap;html=1;gradientColor=#FFD966;fillColor=#FFF2CC;strokeColor=#D6B656;" vertex="1" parent="1">
          <mxGeometry x="107.87" y="416" width="130.25" height="60" as="geometry" />
        </mxCell>
        <mxCell id="2GED-oKlP-oh9KLrhQt5-41" value="" style="edgeStyle=orthogonalEdgeStyle;rounded=0;orthogonalLoop=1;jettySize=auto;html=1;" edge="1" parent="1" target="2GED-oKlP-oh9KLrhQt5-40">
          <mxGeometry relative="1" as="geometry">
            <mxPoint x="173" y="484" as="sourcePoint" />
          </mxGeometry>
        </mxCell>
        <mxCell id="2GED-oKlP-oh9KLrhQt5-38" value="" style="verticalLabelPosition=bottom;verticalAlign=top;html=1;shape=mxgraph.basic.rect;fillColor2=none;strokeWidth=2;size=20;indent=5;fillStyle=auto;fillColor=none;strokeColor=#FFB570;dashed=1;" vertex="1" parent="1">
          <mxGeometry x="9" y="405" width="345" height="77" as="geometry" />
        </mxCell>
        <mxCell id="2GED-oKlP-oh9KLrhQt5-48" value="" style="edgeStyle=orthogonalEdgeStyle;rounded=0;orthogonalLoop=1;jettySize=auto;html=1;" edge="1" parent="1" source="2GED-oKlP-oh9KLrhQt5-40" target="2GED-oKlP-oh9KLrhQt5-47">
          <mxGeometry relative="1" as="geometry" />
        </mxCell>
        <mxCell id="2GED-oKlP-oh9KLrhQt5-40" value="Odb文件" style="rounded=0;whiteSpace=wrap;html=1;gradientColor=#FFD966;fillColor=#FFF2CC;strokeColor=#D6B656;" vertex="1" parent="1">
          <mxGeometry x="129" y="529" width="88.51" height="34" as="geometry" />
        </mxCell>
        <mxCell id="2GED-oKlP-oh9KLrhQt5-43" value="" style="edgeStyle=orthogonalEdgeStyle;rounded=0;orthogonalLoop=1;jettySize=auto;html=1;" edge="1" parent="1" source="2GED-oKlP-oh9KLrhQt5-42" target="2GED-oKlP-oh9KLrhQt5-40">
          <mxGeometry relative="1" as="geometry" />
        </mxCell>
        <mxCell id="2GED-oKlP-oh9KLrhQt5-42" value="ABAQUS/CAE" style="rounded=0;whiteSpace=wrap;html=1;gradientColor=#FFD966;fillColor=#FFF2CC;strokeColor=#D6B656;" vertex="1" parent="1">
          <mxGeometry x="20" y="527" width="81" height="38" as="geometry" />
        </mxCell>
        <mxCell id="2GED-oKlP-oh9KLrhQt5-46" value="" style="edgeStyle=orthogonalEdgeStyle;rounded=0;orthogonalLoop=1;jettySize=auto;html=1;" edge="1" parent="1" source="2GED-oKlP-oh9KLrhQt5-45" target="2GED-oKlP-oh9KLrhQt5-40">
          <mxGeometry relative="1" as="geometry" />
        </mxCell>
        <mxCell id="2GED-oKlP-oh9KLrhQt5-45" value="Python脚本" style="rounded=0;whiteSpace=wrap;html=1;gradientColor=#FFD966;fillColor=#FFF2CC;strokeColor=#D6B656;" vertex="1" parent="1">
          <mxGeometry x="247" y="529" width="97" height="33" as="geometry" />
        </mxCell>
        <mxCell id="2GED-oKlP-oh9KLrhQt5-47" value="数据、云图" style="rounded=0;whiteSpace=wrap;html=1;gradientColor=#FFD966;fillColor=#FFF2CC;strokeColor=#D6B656;" vertex="1" parent="1">
          <mxGeometry x="128.49" y="598" width="88.51" height="34" as="geometry" />
        </mxCell>
        <mxCell id="2GED-oKlP-oh9KLrhQt5-49" value="" style="verticalLabelPosition=bottom;verticalAlign=top;html=1;shape=mxgraph.basic.rect;fillColor2=none;strokeWidth=2;size=20;indent=5;fillStyle=auto;fillColor=none;strokeColor=#FFB570;dashed=1;" vertex="1" parent="1">
          <mxGeometry x="7" y="514" width="345" height="128" as="geometry" />
        </mxCell>
      </root>
    </mxGraphModel>
  </diagram>
</mxfile>
